<mxfile host="app.diagrams.net" modified="2024-03-02T10:47:32.080Z" agent="Mozilla/5.0 (Macintosh; Intel Mac OS X 10_15_7) AppleWebKit/537.36 (KHTML, like Gecko) Chrome/122.0.0.0 Safari/537.36" etag="_3VwIlVnS13exj6vH-gj" version="23.1.1" type="device">
  <diagram id="C5RBs43oDa-KdzZeNtuy" name="Page-1">
    <mxGraphModel dx="903" dy="751" grid="1" gridSize="10" guides="1" tooltips="1" connect="1" arrows="1" fold="1" page="1" pageScale="1" pageWidth="827" pageHeight="1169" math="0" shadow="0">
      <root>
        <mxCell id="WIyWlLk6GJQsqaUBKTNV-0" />
        <mxCell id="WIyWlLk6GJQsqaUBKTNV-1" parent="WIyWlLk6GJQsqaUBKTNV-0" />
        <mxCell id="2h3q5sDtVweo8cAcQsdt-7" value="Table Hooks" style="swimlane;html=1;childLayout=stackLayout;resizeParent=1;resizeParentMax=0;horizontal=0;startSize=20;horizontalStack=0;whiteSpace=wrap;" vertex="1" parent="WIyWlLk6GJQsqaUBKTNV-1">
          <mxGeometry x="20" y="20" width="580" height="580" as="geometry" />
        </mxCell>
        <mxCell id="2h3q5sDtVweo8cAcQsdt-8" value="Create" style="swimlane;html=1;startSize=20;horizontal=0;" vertex="1" parent="2h3q5sDtVweo8cAcQsdt-7">
          <mxGeometry x="20" width="560" height="170" as="geometry">
            <mxRectangle x="20" width="460" height="30" as="alternateBounds" />
          </mxGeometry>
        </mxCell>
        <mxCell id="2h3q5sDtVweo8cAcQsdt-12" value="created doc" style="shape=mxgraph.bpmn.data;labelPosition=center;verticalLabelPosition=bottom;align=center;verticalAlign=top;size=15;html=1;bpmnTransferType=output;" vertex="1" parent="2h3q5sDtVweo8cAcQsdt-8">
          <mxGeometry x="480" y="55" width="40" height="60" as="geometry" />
        </mxCell>
        <mxCell id="2h3q5sDtVweo8cAcQsdt-14" style="edgeStyle=orthogonalEdgeStyle;rounded=0;orthogonalLoop=1;jettySize=auto;html=1;" edge="1" parent="2h3q5sDtVweo8cAcQsdt-8" source="2h3q5sDtVweo8cAcQsdt-13" target="2h3q5sDtVweo8cAcQsdt-5">
          <mxGeometry relative="1" as="geometry" />
        </mxCell>
        <mxCell id="2h3q5sDtVweo8cAcQsdt-13" value="db.add()" style="shape=mxgraph.bpmn.data;labelPosition=center;verticalLabelPosition=bottom;align=center;verticalAlign=top;size=15;html=1;bpmnTransferType=input;" vertex="1" parent="2h3q5sDtVweo8cAcQsdt-8">
          <mxGeometry x="60" y="55" width="40" height="60" as="geometry" />
        </mxCell>
        <mxCell id="2h3q5sDtVweo8cAcQsdt-5" value="Document:&lt;br&gt;- ...&lt;br&gt;- $id = $id || UUIDv4()&lt;br&gt;- $created = $created || Date.now()&lt;br&gt;- $updated = $updated || Date.now()&lt;br&gt;- $deleted = $deleted || 0&lt;br&gt;- $synchronized = $synchronized || 0" style="shape=internalStorage;whiteSpace=wrap;html=1;dx=15;dy=15;rounded=1;arcSize=8;strokeWidth=2;spacing=0;verticalAlign=top;spacingTop=16;align=left;spacingLeft=22;" vertex="1" parent="2h3q5sDtVweo8cAcQsdt-8">
          <mxGeometry x="150" y="20" width="230" height="130" as="geometry" />
        </mxCell>
        <mxCell id="2h3q5sDtVweo8cAcQsdt-15" style="edgeStyle=orthogonalEdgeStyle;rounded=0;orthogonalLoop=1;jettySize=auto;html=1;exitX=1;exitY=0.5;exitDx=0;exitDy=0;entryX=0;entryY=0.5;entryDx=0;entryDy=0;entryPerimeter=0;" edge="1" parent="2h3q5sDtVweo8cAcQsdt-8" source="2h3q5sDtVweo8cAcQsdt-5" target="2h3q5sDtVweo8cAcQsdt-12">
          <mxGeometry relative="1" as="geometry" />
        </mxCell>
        <mxCell id="2h3q5sDtVweo8cAcQsdt-9" value="Update" style="swimlane;html=1;startSize=20;horizontal=0;" vertex="1" parent="2h3q5sDtVweo8cAcQsdt-7">
          <mxGeometry x="20" y="170" width="560" height="140" as="geometry" />
        </mxCell>
        <mxCell id="2h3q5sDtVweo8cAcQsdt-18" value="updated doc" style="shape=mxgraph.bpmn.data;labelPosition=center;verticalLabelPosition=bottom;align=center;verticalAlign=top;size=15;html=1;bpmnTransferType=output;" vertex="1" parent="2h3q5sDtVweo8cAcQsdt-9">
          <mxGeometry x="480" y="35" width="40" height="60" as="geometry" />
        </mxCell>
        <mxCell id="2h3q5sDtVweo8cAcQsdt-20" value="db.update()" style="shape=mxgraph.bpmn.data;labelPosition=center;verticalLabelPosition=bottom;align=center;verticalAlign=top;size=15;html=1;bpmnTransferType=input;" vertex="1" parent="2h3q5sDtVweo8cAcQsdt-9">
          <mxGeometry x="60" y="35" width="40" height="60" as="geometry" />
        </mxCell>
        <mxCell id="2h3q5sDtVweo8cAcQsdt-21" value="Updates:&lt;br&gt;- ...&lt;br&gt;- $updated = $updated || Date.now()&lt;br&gt;- $synchronized = $synchronized || 0" style="shape=internalStorage;whiteSpace=wrap;html=1;dx=15;dy=15;rounded=1;arcSize=8;strokeWidth=2;spacing=0;verticalAlign=top;spacingTop=18;align=left;spacingLeft=22;" vertex="1" parent="2h3q5sDtVweo8cAcQsdt-9">
          <mxGeometry x="150" y="20" width="230" height="90" as="geometry" />
        </mxCell>
        <mxCell id="2h3q5sDtVweo8cAcQsdt-19" style="edgeStyle=orthogonalEdgeStyle;rounded=0;orthogonalLoop=1;jettySize=auto;html=1;" edge="1" parent="2h3q5sDtVweo8cAcQsdt-9" source="2h3q5sDtVweo8cAcQsdt-20" target="2h3q5sDtVweo8cAcQsdt-21">
          <mxGeometry relative="1" as="geometry" />
        </mxCell>
        <mxCell id="2h3q5sDtVweo8cAcQsdt-22" style="edgeStyle=orthogonalEdgeStyle;rounded=0;orthogonalLoop=1;jettySize=auto;html=1;exitX=1;exitY=0.5;exitDx=0;exitDy=0;entryX=0;entryY=0.5;entryDx=0;entryDy=0;entryPerimeter=0;" edge="1" parent="2h3q5sDtVweo8cAcQsdt-9" source="2h3q5sDtVweo8cAcQsdt-21" target="2h3q5sDtVweo8cAcQsdt-18">
          <mxGeometry relative="1" as="geometry" />
        </mxCell>
        <mxCell id="2h3q5sDtVweo8cAcQsdt-10" value="Delete" style="swimlane;html=1;startSize=20;horizontal=0;" vertex="1" parent="2h3q5sDtVweo8cAcQsdt-7">
          <mxGeometry x="20" y="310" width="560" height="270" as="geometry" />
        </mxCell>
        <mxCell id="2h3q5sDtVweo8cAcQsdt-49" style="edgeStyle=orthogonalEdgeStyle;rounded=0;orthogonalLoop=1;jettySize=auto;html=1;" edge="1" parent="2h3q5sDtVweo8cAcQsdt-10" source="2h3q5sDtVweo8cAcQsdt-25" target="2h3q5sDtVweo8cAcQsdt-33">
          <mxGeometry relative="1" as="geometry">
            <mxPoint x="200" y="70" as="targetPoint" />
          </mxGeometry>
        </mxCell>
        <mxCell id="2h3q5sDtVweo8cAcQsdt-25" value="db.delete()" style="shape=mxgraph.bpmn.data;labelPosition=center;verticalLabelPosition=bottom;align=center;verticalAlign=top;size=15;html=1;bpmnTransferType=input;" vertex="1" parent="2h3q5sDtVweo8cAcQsdt-10">
          <mxGeometry x="60" y="40" width="40" height="60" as="geometry" />
        </mxCell>
        <mxCell id="2h3q5sDtVweo8cAcQsdt-33" value="deleted doc" style="shape=mxgraph.bpmn.data;labelPosition=center;verticalLabelPosition=bottom;align=center;verticalAlign=top;size=15;html=1;bpmnTransferType=output;" vertex="1" parent="2h3q5sDtVweo8cAcQsdt-10">
          <mxGeometry x="480" y="40" width="40" height="60" as="geometry" />
        </mxCell>
        <mxCell id="2h3q5sDtVweo8cAcQsdt-38" value="Document:&lt;br&gt;- ...&lt;br&gt;- $updated = Date.now()&lt;br&gt;- $deleted = 1&lt;br&gt;- $synchronized = 0" style="shape=internalStorage;whiteSpace=wrap;html=1;dx=15;dy=15;rounded=1;arcSize=8;strokeWidth=2;spacing=0;verticalAlign=top;spacingTop=16;align=left;spacingLeft=22;" vertex="1" parent="2h3q5sDtVweo8cAcQsdt-10">
          <mxGeometry x="270" y="147.5" width="170" height="105" as="geometry" />
        </mxCell>
        <mxCell id="2h3q5sDtVweo8cAcQsdt-54" style="edgeStyle=orthogonalEdgeStyle;rounded=0;orthogonalLoop=1;jettySize=auto;html=1;" edge="1" parent="2h3q5sDtVweo8cAcQsdt-10" source="2h3q5sDtVweo8cAcQsdt-42" target="2h3q5sDtVweo8cAcQsdt-38">
          <mxGeometry relative="1" as="geometry" />
        </mxCell>
        <mxCell id="2h3q5sDtVweo8cAcQsdt-42" value="$deleted != 1" style="strokeWidth=2;html=1;shape=mxgraph.flowchart.decision;whiteSpace=wrap;fontSize=10;" vertex="1" parent="2h3q5sDtVweo8cAcQsdt-10">
          <mxGeometry x="160" y="165" width="80" height="70" as="geometry" />
        </mxCell>
        <mxCell id="2h3q5sDtVweo8cAcQsdt-53" style="edgeStyle=orthogonalEdgeStyle;rounded=0;orthogonalLoop=1;jettySize=auto;html=1;entryX=0;entryY=0.5;entryDx=0;entryDy=0;entryPerimeter=0;" edge="1" parent="2h3q5sDtVweo8cAcQsdt-10" source="2h3q5sDtVweo8cAcQsdt-25" target="2h3q5sDtVweo8cAcQsdt-42">
          <mxGeometry relative="1" as="geometry" />
        </mxCell>
        <mxCell id="2h3q5sDtVweo8cAcQsdt-37" value="created doc" style="shape=mxgraph.bpmn.data;labelPosition=center;verticalLabelPosition=bottom;align=center;verticalAlign=top;size=15;html=1;bpmnTransferType=output;" vertex="1" parent="2h3q5sDtVweo8cAcQsdt-10">
          <mxGeometry x="480" y="170" width="40" height="60" as="geometry" />
        </mxCell>
        <mxCell id="2h3q5sDtVweo8cAcQsdt-39" style="edgeStyle=orthogonalEdgeStyle;rounded=0;orthogonalLoop=1;jettySize=auto;html=1;exitX=1;exitY=0.5;exitDx=0;exitDy=0;entryX=0;entryY=0.5;entryDx=0;entryDy=0;entryPerimeter=0;" edge="1" parent="2h3q5sDtVweo8cAcQsdt-10" source="2h3q5sDtVweo8cAcQsdt-38" target="2h3q5sDtVweo8cAcQsdt-37">
          <mxGeometry relative="1" as="geometry" />
        </mxCell>
      </root>
    </mxGraphModel>
  </diagram>
</mxfile>
